<svg width="195" height="188" viewBox="0 0 195 188" fill="none" xmlns="http://www.w3.org/2000/svg">
<g filter="url(#filter0_d_3_1603)">
<path d="M4 5.83541H10.2601V38.2544H16.2479V5.83541H22.508V0.43225H4V5.83541Z" fill="#F79E89"/>
<path fill-rule="evenodd" clip-rule="evenodd" d="M64.4967 29.1771C64.4967 35.2286 67.7084 38.6866 73.5874 38.6866C79.4664 38.6866 82.6781 35.2286 82.6781 29.1771V9.50956C82.6781 3.45802 79.4664 0 73.5874 0C67.7084 0 64.4967 3.45802 64.4967 9.50956V29.1771ZM70.4846 9.13134C70.4846 6.42976 71.6822 5.40316 73.5874 5.40316C75.4926 5.40316 76.6902 6.42976 76.6902 9.13134V29.5553C76.6902 32.2569 75.4926 33.2835 73.5874 33.2835C71.6822 33.2835 70.4846 32.2569 70.4846 29.5553V9.13134Z" fill="#F79E89"/>
<path fill-rule="evenodd" clip-rule="evenodd" d="M5.63306 108.911H15.1048C21.0927 108.911 24.0322 105.615 24.0322 99.5636V80.4364C24.0322 74.3849 21.0927 71.089 15.1048 71.089H5.63306V108.911ZM14.9959 76.4921C16.9012 76.4921 18.0443 77.4647 18.0443 80.1663V99.8338C18.0443 102.535 16.9012 103.508 14.9959 103.508H11.6209V76.4921H14.9959Z" fill="#F79E89"/>
<path fill-rule="evenodd" clip-rule="evenodd" d="M67.1015 99.8338C67.1015 105.885 70.3132 109.343 76.1922 109.343C82.0712 109.343 85.2829 105.885 85.2829 99.8338V80.1663C85.2829 74.1147 82.0712 70.6567 76.1922 70.6567C70.3132 70.6567 67.1015 74.1147 67.1015 80.1663V99.8338ZM73.0894 79.788C73.0894 77.0864 74.287 76.0599 76.1922 76.0599C78.0974 76.0599 79.295 77.0864 79.295 79.788V100.212C79.295 102.914 78.0974 103.94 76.1922 103.94C74.287 103.94 73.0894 102.914 73.0894 100.212V79.788Z" fill="#F79E89"/>
<path d="M21.4737 179.568H5.63306V141.746H11.6209V174.165H21.4737V179.568Z" fill="#F79E89"/>
<path d="M69.9113 179.568H63.9234V141.746H69.9113V179.568Z" fill="#F79E89"/>
<path d="M119.835 162.635C116.69 159.779 113.265 156.669 113.265 150.823C113.265 144.771 116.259 141.313 122.084 141.313C127.908 141.313 130.902 144.771 130.902 150.823V152.282H125.241V150.445C125.241 147.743 124.152 146.717 122.247 146.717C120.342 146.717 119.253 147.743 119.253 150.445C119.253 154.016 121.719 156.256 124.387 158.679C127.532 161.534 130.957 164.645 130.957 170.49C130.957 176.542 127.908 180 122.029 180C116.15 180 113.102 176.542 113.102 170.49V167.897H118.763V170.869C118.763 173.57 119.961 174.543 121.866 174.543C123.771 174.543 124.969 173.57 124.969 170.869C124.969 167.297 122.503 165.058 119.835 162.635Z" fill="#F79E89"/>
<path d="M178.752 147.149H172.492V141.746H191V147.149H184.74V179.568H178.752V147.149Z" fill="#F79E89"/>
<path d="M190.225 5.61287C191.043 6.42444 191.043 7.74024 190.225 8.55181L174.523 24.1378C173.705 24.9494 172.38 24.9494 171.562 24.1378L166.851 19.462C166.034 18.6505 166.034 17.3347 166.851 16.5231C167.669 15.7115 168.994 15.7115 169.812 16.5231L173.042 19.7294L187.264 5.61287C188.082 4.80131 189.408 4.80131 190.225 5.61287Z" fill="#F79E89"/>
<path d="M161.31 7.90625C161.507 7.71139 161.773 7.60191 162.051 7.60191H179.323C180.48 7.60191 181.417 6.6715 181.417 5.52378C181.417 4.37605 180.48 3.44564 179.323 3.44564H162.051C160.663 3.44564 159.331 3.993 158.35 4.96732C157.368 5.94163 156.817 7.26309 156.817 8.64098V30.4614C156.817 31.8393 157.368 33.1608 158.35 34.1351C159.331 35.1094 160.663 35.6568 162.051 35.6568H184.034C185.422 35.6568 186.754 35.1094 187.735 34.1351C188.717 33.1608 189.268 31.8393 189.268 30.4614V19.5512C189.268 18.4035 188.331 17.4731 187.175 17.4731C186.018 17.4731 185.081 18.4035 185.081 19.5512V30.4614C185.081 30.737 184.971 31.0013 184.774 31.1962C184.578 31.391 184.312 31.5005 184.034 31.5005H162.051C161.773 31.5005 161.507 31.391 161.31 31.1962C161.114 31.0013 161.004 30.737 161.004 30.4614V8.64098C161.004 8.3654 161.114 8.10111 161.31 7.90625Z" fill="#F79E89"/>
</g>
<defs>
<filter id="filter0_d_3_1603" x="0" y="0" width="195" height="188" filterUnits="userSpaceOnUse" color-interpolation-filters="sRGB">
<feFlood flood-opacity="0" result="BackgroundImageFix"/>
<feColorMatrix in="SourceAlpha" type="matrix" values="0 0 0 0 0 0 0 0 0 0 0 0 0 0 0 0 0 0 127 0" result="hardAlpha"/>
<feOffset dy="4"/>
<feGaussianBlur stdDeviation="2"/>
<feComposite in2="hardAlpha" operator="out"/>
<feColorMatrix type="matrix" values="0 0 0 0 0 0 0 0 0 0 0 0 0 0 0 0 0 0 0.25 0"/>
<feBlend mode="normal" in2="BackgroundImageFix" result="effect1_dropShadow_3_1603"/>
<feBlend mode="normal" in="SourceGraphic" in2="effect1_dropShadow_3_1603" result="shape"/>
</filter>
</defs>
</svg>
